<?xml version="1.0" encoding="utf-8"?>
<!-- Generator: Adobe Illustrator 16.0.0, SVG Export Plug-In . SVG Version: 6.00 Build 0)  -->
<!DOCTYPE svg PUBLIC "-//W3C//DTD SVG 1.1//EN" "http://www.w3.org/Graphics/SVG/1.1/DTD/svg11.dtd">
<svg version="1.1" id="Layer_1" xmlns="http://www.w3.org/2000/svg" xmlns:xlink="http://www.w3.org/1999/xlink" x="0px" y="0px"
	 width="1920px" height="1080px" viewBox="0 0 1920 1080" enable-background="new 0 0 1920 1080" xml:space="preserve">
<linearGradient id="SVGID_1_" gradientUnits="userSpaceOnUse" x1="-64.8599" y1="951.9307" x2="403.6115" y2="35.3859" gradientTransform="matrix(6 0 0 1.0547 0 0)">
	<stop  offset="0" style="stop-color:#2E3192"/>
	<stop  offset="0.2562" style="stop-color:#2C2A79"/>
	<stop  offset="0.5827" style="stop-color:#262262"/>
</linearGradient>
<rect y="0" fill="url(#SVGID_1_)" width="1920" height="1080"/>
<linearGradient id="SVGID_2_" gradientUnits="userSpaceOnUse" x1="63.646" y1="-26.7979" x2="244.4185" y2="370.9174">
	<stop  offset="0" style="stop-color:#7BCAAF"/>
	<stop  offset="0.0426" style="stop-color:#6FB3A5"/>
	<stop  offset="0.1489" style="stop-color:#5A8B94"/>
	<stop  offset="0.2592" style="stop-color:#496D85"/>
	<stop  offset="0.3714" style="stop-color:#3C5679"/>
	<stop  offset="0.4859" style="stop-color:#334470"/>
	<stop  offset="0.6032" style="stop-color:#2D3569"/>
	<stop  offset="0.7248" style="stop-color:#292B65"/>
	<stop  offset="0.8533" style="stop-color:#272462"/>
	<stop  offset="1" style="stop-color:#262262"/>
</linearGradient>
<circle fill="url(#SVGID_2_)" cx="139.24" cy="139.514" r="217.522"/>
<linearGradient id="SVGID_3_" gradientUnits="userSpaceOnUse" x1="1118.7598" y1="786.4775" x2="1140.9183" y2="-1706.5859" gradientTransform="matrix(1 0.0054 -0.0054 1 -0.6113 -5.4448)">
	<stop  offset="0" style="stop-color:#7BCAAF"/>
	<stop  offset="0.0459" style="stop-color:#66A39E"/>
	<stop  offset="0.0988" style="stop-color:#568490"/>
	<stop  offset="0.1573" style="stop-color:#486B84"/>
	<stop  offset="0.2202" style="stop-color:#3D577A"/>
	<stop  offset="0.2887" style="stop-color:#354772"/>
	<stop  offset="0.3646" style="stop-color:#2F3A6C"/>
	<stop  offset="0.4511" style="stop-color:#2A3067"/>
	<stop  offset="0.5546" style="stop-color:#282864"/>
	<stop  offset="0.6919" style="stop-color:#272362"/>
	<stop  offset="1" style="stop-color:#262262"/>
</linearGradient>
<path opacity="0.6" fill="url(#SVGID_3_)" d="M-47.762,180.634c0,0,38.336-170.382,324.943,44.002
	c49.016,36.664,117.368,71.441,180.182,65.906c50.143-4.419,95.123-32.899,134.04-62.935
	c81.196-62.665,125.644-168.749,228.89-199.2c74.75-22.046,151.97-7.449,220.359,27.458
	c83.786,42.766,149.423,108.268,241.164,134.708c98.691,28.444,214.384,2.37,308.472-31.025
	c97.387-34.567,192.268-83.809,281.787-135.082c541.809-310.321,499.877,74.06,499.877,74.06l3.302-486.418l-2493.124-13.542
	L-47.762,180.634z"/>
<linearGradient id="SVGID_4_" gradientUnits="userSpaceOnUse" x1="-148.3359" y1="-32.147" x2="2309.6152" y2="-449.68" gradientTransform="matrix(1 0.0054 -0.0054 1 -0.6113 -5.4448)">
	<stop  offset="0" style="stop-color:#7BCAAF"/>
	<stop  offset="0.2499" style="stop-color:#5A8C94"/>
	<stop  offset="0.5203" style="stop-color:#405D7D"/>
	<stop  offset="0.7444" style="stop-color:#313E6E"/>
	<stop  offset="0.9104" style="stop-color:#292A65"/>
	<stop  offset="1" style="stop-color:#262262"/>
</linearGradient>
<path opacity="0.3" fill="url(#SVGID_4_)" d="M-99.762,92.634c0,0,38.336-170.382,324.943,44.002
	c49.016,36.664,117.368,71.441,180.182,65.906c50.143-4.419,95.123-32.899,134.04-62.935
	c81.196-62.665,125.644-168.749,228.89-199.2c74.75-22.046,151.97-7.449,220.359,27.458
	c83.786,42.766,149.423,108.268,241.164,134.708c98.691,28.444,214.384,2.37,308.472-31.025
	c97.387-34.567,192.268-83.809,281.787-135.082c541.809-310.321,499.877,74.06,499.877,74.06l3.302-486.418l-2493.124-13.542
	L-99.762,92.634z"/>
<linearGradient id="SVGID_5_" gradientUnits="userSpaceOnUse" x1="1118.6748" y1="2942.5713" x2="1244.5413" y2="452.627">
	<stop  offset="0" style="stop-color:#262262"/>
	<stop  offset="0.1208" style="stop-color:#292462"/>
	<stop  offset="0.2458" style="stop-color:#332962"/>
	<stop  offset="0.3727" style="stop-color:#413164"/>
	<stop  offset="0.5009" style="stop-color:#563D65"/>
	<stop  offset="0.6302" style="stop-color:#714E66"/>
	<stop  offset="0.7604" style="stop-color:#936566"/>
	<stop  offset="0.8889" style="stop-color:#C18364"/>
	<stop  offset="1" style="stop-color:#FAA95C"/>
</linearGradient>
<path fill="url(#SVGID_5_)" d="M2378.41,931.651c0,0-38.336,170.382-324.941-44.002c-49.016-36.664-117.369-71.441-180.182-65.906
	c-50.143,4.419-95.123,32.899-134.041,62.935c-81.195,62.665-125.643,168.749-228.889,199.2
	c-74.75,22.045-151.971,7.448-220.359-27.459c-83.787-42.766-149.424-108.268-241.164-134.709
	c-98.691-28.443-214.385-2.369-308.473,31.025c-97.387,34.568-192.268,83.81-281.787,135.082
	c-541.809,310.32-499.877-74.06-499.877-74.06l-3.301,486.418l2493.123,13.542L2378.41,931.651z"/>
<linearGradient id="SVGID_6_" gradientUnits="userSpaceOnUse" x1="1118.6748" y1="2911.5703" x2="1244.5411" y2="421.6274">
	<stop  offset="0" style="stop-color:#262262"/>
	<stop  offset="0.1208" style="stop-color:#292462"/>
	<stop  offset="0.2458" style="stop-color:#332962"/>
	<stop  offset="0.3727" style="stop-color:#413164"/>
	<stop  offset="0.5009" style="stop-color:#563D65"/>
	<stop  offset="0.6302" style="stop-color:#714E66"/>
	<stop  offset="0.7604" style="stop-color:#936566"/>
	<stop  offset="0.8889" style="stop-color:#C18364"/>
	<stop  offset="1" style="stop-color:#FAA95C"/>
</linearGradient>
<path opacity="0.1" fill="url(#SVGID_6_)" d="M2378.41,900.651c0,0-38.336,170.382-324.941-44.002
	c-49.016-36.664-117.369-71.441-180.182-65.906c-50.143,4.419-95.123,32.899-134.041,62.935
	c-81.195,62.665-125.643,168.749-228.889,199.2c-74.75,22.045-151.971,7.448-220.359-27.459
	c-83.787-42.766-149.424-108.268-241.164-134.709c-98.691-28.443-214.385-2.369-308.473,31.025
	c-97.387,34.568-192.268,83.81-281.787,135.082c-541.809,310.32-499.877-74.06-499.877-74.06l-3.301,486.418l2493.123,13.542
	L2378.41,900.651z"/>
<circle opacity="0.2" fill="#FFDC85" cx="1573.382" cy="324.297" r="67.504"/>
<linearGradient id="SVGID_7_" gradientUnits="userSpaceOnUse" x1="1679.5898" y1="277.1113" x2="1489.2333" y2="358.0987">
	<stop  offset="0" style="stop-color:#262262"/>
	<stop  offset="0.0253" style="stop-color:#302862"/>
	<stop  offset="0.1384" style="stop-color:#583F65"/>
	<stop  offset="0.255" style="stop-color:#7C5566"/>
	<stop  offset="0.3727" style="stop-color:#9C6B66"/>
	<stop  offset="0.4917" style="stop-color:#BA7E64"/>
	<stop  offset="0.6124" style="stop-color:#D38F61"/>
	<stop  offset="0.7356" style="stop-color:#E69C5F"/>
	<stop  offset="0.8627" style="stop-color:#F4A65C"/>
	<stop  offset="1" style="stop-color:#FAA95C"/>
</linearGradient>
<circle fill="url(#SVGID_7_)" cx="1573.382" cy="322.297" r="43.504"/>
<circle opacity="0.1" fill="#FFDC85" cx="309.941" cy="821.161" r="130.501"/>
<linearGradient id="SVGID_8_" gradientUnits="userSpaceOnUse" x1="76.3716" y1="819.8115" x2="476.2733" y2="815.5009">
	<stop  offset="0" style="stop-color:#7BCAAF"/>
	<stop  offset="0.1121" style="stop-color:#639D9C"/>
	<stop  offset="0.2401" style="stop-color:#50788B"/>
	<stop  offset="0.37" style="stop-color:#405D7D"/>
	<stop  offset="0.499" style="stop-color:#354973"/>
	<stop  offset="0.627" style="stop-color:#2E386B"/>
	<stop  offset="0.7538" style="stop-color:#292C66"/>
	<stop  offset="0.8788" style="stop-color:#272562"/>
	<stop  offset="1" style="stop-color:#262262"/>
</linearGradient>
<circle fill="url(#SVGID_8_)" cx="309.941" cy="817.294" r="84.104"/>
<g opacity="0.2">
	<ellipse fill="#F9F8F7" cx="394.045" cy="357.036" rx="0.993" ry="16.352"/>
	
		<ellipse transform="matrix(0.7071 0.7071 -0.7071 0.7071 367.8756 -174.0586)" fill="#F9F8F7" cx="394.045" cy="357.036" rx="0.993" ry="16.352"/>
	<ellipse fill="#F9F8F7" cx="394.045" cy="357.036" rx="16.352" ry="0.993"/>
	
		<ellipse transform="matrix(-0.7071 0.7071 -0.7071 -0.7071 925.2958 331.2431)" fill="#F9F8F7" cx="394.045" cy="357.257" rx="0.993" ry="16.352"/>
</g>
<g opacity="0.2">
	<ellipse fill="#F9F8F7" cx="542.408" cy="951.662" rx="0.993" ry="16.352"/>
	
		<ellipse transform="matrix(0.7072 0.707 -0.707 0.7072 831.61 -104.8555)" fill="#F9F8F7" cx="542.408" cy="951.661" rx="0.993" ry="16.352"/>
	<ellipse fill="#F9F8F7" cx="542.408" cy="951.661" rx="16.352" ry="0.993"/>
	
		<ellipse transform="matrix(-0.7072 0.707 -0.707 -0.7072 1598.98 1241.6073)" fill="#F9F8F7" cx="542.408" cy="951.882" rx="0.993" ry="16.351"/>
</g>
<g opacity="0.2">
	<ellipse fill="#F9F8F7" cx="1065.591" cy="186.773" rx="0.993" ry="16.352"/>
	
		<ellipse transform="matrix(0.707 0.7072 -0.7072 0.707 444.3268 -698.8899)" fill="#F9F8F7" cx="1065.591" cy="186.773" rx="0.993" ry="16.352"/>
	<ellipse fill="#F9F8F7" cx="1065.591" cy="186.773" rx="16.353" ry="0.993"/>
	
		<ellipse transform="matrix(-0.707 0.7072 -0.7072 -0.707 1951.194 -434.4219)" fill="#F9F8F7" cx="1065.591" cy="186.994" rx="0.993" ry="16.352"/>
</g>
<g opacity="0.2">
	<ellipse fill="#F9F8F7" cx="1878.841" cy="734.062" rx="0.993" ry="16.352"/>
	
		<ellipse transform="matrix(0.7071 0.7071 -0.7071 0.7071 1069.3596 -1113.5393)" fill="#F9F8F7" cx="1878.841" cy="734.062" rx="0.993" ry="16.353"/>
	<ellipse fill="#F9F8F7" cx="1878.841" cy="734.062" rx="16.353" ry="0.993"/>
	
		<ellipse transform="matrix(-0.7071 0.7071 -0.7071 -0.7071 3726.5977 -75.0428)" fill="#F9F8F7" cx="1878.841" cy="734.282" rx="0.993" ry="16.352"/>
</g>
<g opacity="0.2">
	<ellipse fill="#F9F8F7" cx="1697.35" cy="240.441" rx="0.993" ry="16.352"/>
	
		<ellipse transform="matrix(0.7071 0.7071 -0.7071 0.7071 667.1593 -1129.7841)" fill="#F9F8F7" cx="1697.35" cy="240.44" rx="0.993" ry="16.353"/>
	<ellipse fill="#F9F8F7" cx="1697.35" cy="240.44" rx="16.353" ry="0.993"/>
	
		<ellipse transform="matrix(-0.7071 0.7071 -0.7071 -0.7071 3067.73 -789.3732)" fill="#F9F8F7" cx="1697.35" cy="240.661" rx="0.993" ry="16.352"/>
</g>
</svg>
